<?xml version="1.0" encoding="UTF-8" standalone="no"?>
<svg xmlns:rdf="http://www.w3.org/1999/02/22-rdf-syntax-ns#" xmlns="http://www.w3.org/2000/svg" focusable="false" height="40px" width="174px" version="1.1" preserveAspectRatio="xMidYMid meet" xmlns:cc="http://creativecommons.org/ns#" xmlns:dc="http://purl.org/dc/elements/1.1/" viewBox="0 0 174 40">
	<g fill="#434241">
		<circle cy="8" cx="8.705" r="4"/>
		<circle cy="8" cx="18.116" r="4"/>
		<circle cy="16" cx="4" r="4"/>
		<circle cy="16" cx="13.41" r="4"/>
		<circle cy="24" cx="8.705" r="4"/>
		<circle cy="24" cx="18.116" r="4"/>
		<circle cy="32" cx="13.41" r="4"/>
		<path d="m35.504 17v-1.246l4.032-6.146h-3.654v-1.736h6.188v1.246l-4.032 6.146h4.074v1.736h-6.608z"/>
		<path d="m45.07 17.168q-.476 0-.868-.168-.378-.154-.644-.434-.266-.294-.42-.672-.14-.378-.14-.826 0-1.092.924-1.708t2.982-.826q-.028-.462-.28-.728-.238-.28-.812-.28-.448 0-.896.168-.434.168-.938.462l-.742-1.358q.672-.406 1.4-.658.742-.252 1.568-.252 1.344 0 2.044.77.714.756.714 2.366v3.976h-1.68l-.14-.714h-.056q-.448.392-.938.644-.49.238-1.078.238zm.7-1.596q.35 0 .602-.154t.532-.434v-1.218q-1.092.154-1.512.448t-.42.7q0 .336.21.504.224.154.588.154zm.63-6.58-1.008-1.008 2.156-2.548 1.386 1.358-2.534 2.198z"/>
		<path d="m50.703 17v-9.814h2.002v5.628h.056l2.198-2.758h2.24l-2.436 2.856 2.618 4.088h-2.226l-1.568-2.702-.882.994v1.708h-2.002z"/>
		<path d="m60.277 17.168q-.532 0-0.896-.168t-.588-.462q-.21-.308-.308-.728-.098-.434-.098-.966v-7.658h2.058v7.742q0 .322 0.112.448 0.126.126.252.126.07 0 0.112 0 .056 0 .14-.028l.252 1.526q-.168.07-.434.112-.252.056-.602.056z"/>
		<path d="m64.129 17.168q-.476 0-.868-.168-.378-.154-.644-.434-.266-.294-.42-.672-.14-.378-.14-.826 0-1.092.924-1.708t2.982-.826q-.028-.462-.28-.728-.238-.28-.812-.28-.448 0-.896.168-.434.168-.938.462l-.742-1.358q.672-.406 1.4-.658.742-.252 1.568-.252 1.344 0 2.044.77.714.756.714 2.366v3.976h-1.68l-.14-.714h-.056q-.448.392-.938.644-.49.238-1.078.238zm.7-1.596q.35 0 .602-.154t.532-.434v-1.218q-1.092.154-1.512.448t-.42.7q0 .336.21.504.224.154.588.154z"/>
		<path d="m72.24 17.168q-0.644 0-1.176-.252-.518-.252-.896-.714-0.364-.476-.574-1.148-.196-.672-.196-1.526t.238-1.526q.252-.672 0.644-1.134 0.406-.476 0.924-.728 0.532-.252 1.078-.252 0.588 0 0.966.196t0.742.532l-.084-1.064v-2.366h2.058v9.814h-1.68l-.14-.686h-.056q-0.364.364-.854.616-0.49.238-.994.238zm.532-1.68q0.336 0 .602-.14.28-.14.532-.49v-2.842q-0.28-.252-.574-.35t-.574-.098q-0.49 0-0.868.476-.378.462-.378 1.456 0 1.036.322 1.512.336.476 0.938.476z"/>
		<path d="m77.773 17v-6.944h1.68l.14.882h.056q.448-.42.98-.728.532-.322 1.246-.322 1.134 0 1.638.742.518.742.518 2.058v4.312h-2.058v-4.046q0-.756-.21-1.036-.196-.28-.644-.28-.392 0-.672.182-.28.168-.616.49v4.69h-2.058z"/>
		<path d="m85.785 17v-6.944h2.058v6.944h-2.058zm1.162-8.008-1.008-1.008 2.156-2.548 1.386 1.358-2.534 2.198z"/>
		<path d="m94.474 17.168q-.686 0-1.414-.266-.714-.266-1.246-.7l.924-1.288q.476.364.91.546t.882.182q.462 0 .672-.154t.21-.434q0-.168-.126-.294-.112-.14-.322-.252-.196-.112-.448-.196-.252-.098-.518-.21-.322-.126-.644-.294t-.588-.406q-.266-.252-.434-.574-.168-.336-.168-.77 0-.476.182-.882.196-.406.546-.686t.84-.434q.49-.168 1.092-.168.798 0 1.4.28.602.266 1.05.602l-.924 1.232q-.378-.28-.742-.434t-.728-.154q-.784 0-.784.546 0 .168.112.294.112.112.294.21.196.098.434.196.252.084.518.182.336.126.658.294.336.154.602.392.28.238.448.588.168.336.168.812t-.182.882-.546.714q-.364.294-.896.476-.532.168-1.232.168zm-.714-8.246-1.512-1.834.784-.728 1.75 1.288h.056l1.75-1.288.784.728-1.512 1.834h-2.1z"/>
		<path d="m98.637 17v-9.814h2.002v5.628h.056l2.198-2.758h2.24l-2.436 2.856 2.618 4.088h-2.226l-1.568-2.702-.882.994v1.708h-2.002z"/>
		<path d="m108.92 17.168q-.658 0-1.274-.238-.616-.252-1.092-.714-.462-.462-.742-1.134-.28-.686-.28-1.554t.28-1.54q.28-.686.742-1.148.476-.462 1.092-.7.616-.252 1.274-.252t1.26.252q.616.238 1.078.7.476.462.756 1.148.28.672.28 1.54t-.28 1.554q-.28.672-.756 1.134-.462.462-1.078.714-.602.238-1.26.238zm0-1.666q.63 0 .952-.532t.322-1.442-.322-1.442-.952-.532q-.644 0-.966.532-.308.532-.308 1.442t.308 1.442q.322.532.966.532z"/>
		<path d="m115.59 17.168q-.532 0-.896-.168t-.588-.462q-.21-.308-.308-.728-.098-.434-.098-.966v-7.658h2.058v7.742q0 .322.112.448.126.126.252.126.07 0 .112 0 .056 0 .14-.028l.252 1.526q-.168.07-.434.112-.252.056-.602.056z"/>
		<path d="m119.45 17.168q-.476 0-.868-.168-.378-.154-.644-.434-.266-.294-.42-.672-.14-.378-.14-.826 0-1.092.924-1.708t2.982-.826q-.028-.462-.28-.728-.238-.28-.812-.28-.448 0-.896.168-.434.168-.938.462l-.742-1.358q.672-.406 1.4-.658.742-.252 1.568-.252 1.344 0 2.044.77.714.756.714 2.366v3.976h-1.68l-.14-.714h-.056q-.448.392-.938.644-.49.238-1.078.238zm.7-1.596q.35 0 .602-.154t.532-.434v-1.218q-1.092.154-1.512.448t-.42.7q0 .336.21.504.224.154.588.154z"/>
		<path d="m128.04 17v-9.128h3.122q.714 0 1.316.112.616.098 1.064.364.462.266.714.7.266.434.266 1.092 0 .308-.084.616t-.238.574-.378.476q-.21.21-.49.308v.056q.35.084.644.266.294.168.518.434t.35.63q.126.35.126.812 0 .7-.28 1.204-.266.504-.756.84-.476.322-1.12.49-.644.154-1.386.154h-3.388zm2.058-5.474h.966q.756 0 1.092-.294.35-.294.35-.784 0-.532-.35-.756t-1.078-.224h-.98v2.058zm0 3.878h1.162q1.694 0 1.694-1.232 0-.602-.42-.854-.42-.266-1.274-.266h-1.162v2.352z"/>
		<path d="m136.34 17v-6.944h1.68l.14 1.218h.056q.378-.714.91-1.05t1.064-.336q.294 0 .476.042.196.028.35.098l-.336 1.778q-.196-.056-.364-.084t-.392-.028q-.392 0-.826.28-.42.28-.7.994v4.032h-2.058z"/>
		<path d="m141.92 17v-6.944h1.68l.14.882h.056q.448-.42.98-.728.532-.322 1.246-.322 1.134 0 1.638.742.518.742.518 2.058v4.312h-2.058v-4.046q0-.756-.21-1.036-.196-.28-.644-.28-.392 0-.672.182-.28.168-.616.49v4.69h-2.058z"/>
		<path d="m152.92 17.168q-.658 0-1.274-.238-.616-.252-1.092-.714-.462-.462-.742-1.134-.28-.686-.28-1.554t.28-1.54q.28-.686.742-1.148.476-.462 1.092-.7.616-.252 1.274-.252t1.26.252q.616.238 1.078.7.476.462.756 1.148.28.672.28 1.54t-.28 1.554q-.28.672-.756 1.134-.462.462-1.078.714-.602.238-1.26.238zm0-1.666q.63 0 .952-.532t.322-1.442-.322-1.442-.952-.532q-.644 0-.966.532-.308.532-.308 1.442t.308 1.442q.322.532.966.532z"/>
		<path d="m157.72 19.716-.42-1.092q.784-.28 1.19-.728t.392-.98h-.112q-.49 0-.868-.294-.378-.308-.378-.868 0-.532.378-.854t.91-.322q.7 0 1.064.518.364.504.364 1.428 0 1.162-.644 1.988-.644.84-1.876 1.204z"/>
		<path d="m36.078 33v-9.128h2.058v3.514h3.15v-3.514h2.072v9.128h-2.072v-3.808h-3.15v3.808h-2.058z"/>
		<path d="m45.344 33v-6.944h1.68l.14 1.218h.056q.378-.714.91-1.05t1.064-.336q.294 0 .476.042.196.028.35.098l-.336 1.778q-.196-.056-.364-.084t-.392-.028q-.392 0-.826.28-.42.28-.7.994v4.032h-2.058z"/>
		<path d="m53.767 33.168q-.658 0-1.274-.238-.616-.252-1.092-.714-.462-.462-.742-1.134-.28-.686-.28-1.554t.28-1.54q.28-.686.742-1.148.476-.462 1.092-.7.616-.252 1.274-.252t1.26.252q.616.238 1.078.7.476.462.756 1.148.28.672.28 1.54t-.28 1.554q-.28.672-.756 1.134-.462.462-1.078.714-.602.238-1.26.238zm0-1.666q.63 0 .952-.532t.322-1.442-.322-1.442-.952-.532q-.644 0-.966.532-.308.532-.308 1.442t.308 1.442q.322.532.966.532z"/>
		<path d="m57.981 33v-1.106l2.912-4.228h-2.59v-1.61h5.152v1.092l-2.912 4.242h3.01v1.61h-5.572z"/>
		<path d="m64.812 33v-6.944h1.68l.14.882h.056q.448-.42.98-.728.532-.322 1.246-.322 1.134 0 1.638.742.518.742.518 2.058v4.312h-2.058v-4.046q0-.756-.21-1.036-.196-.28-.644-.28-.392 0-.672.182-.28.168-.616.49v4.69h-2.058z"/>
		<path d="m75.806 33.168q-.658 0-1.274-.238-.616-.252-1.092-.714-.462-.462-0.742-1.134-.28-.686-.28-1.554t.28-1.54q0.28-.686 0.742-1.148.476-.462 1.092-.7.616-.252 1.274-.252t1.26.252q.616.238 1.078.7.476.462.756 1.148.28.672.28 1.54t-.28 1.554q-.28.672-.756 1.134-0.462.462-1.078.714-.602.238-1.26.238zm0-1.666q0.63 0 .952-.532t.322-1.442-.322-1.442-.952-.532q-0.644 0-0.966.532-0.308.532-0.308 1.442t0.308 1.442q.322.532 0.966.532z"/>
		<path d="m82.076 33-2.338-6.944h2.072l.896 3.276q.14.518.266 1.064 0.14.532 0.28 1.078h.056q0.126-.546.252-1.078.14-.546.28-1.064l0.91-3.276h1.974l-2.268 6.944h-2.38z"/>
		<path d="m89.285 33.168q-.476 0-.868-.168-.378-.154-.644-.434-.266-.294-.42-.672-.14-.378-.14-.826 0-1.092.924-1.708t2.982-.826q-.028-.462-.28-.728-.238-.28-.812-.28-.448 0-.896.168-.434.168-.938.462l-.742-1.358q.672-.406 1.4-.658.742-.252 1.568-.252 1.344 0 2.044.77.714.756.714 2.366v3.976h-1.68l-.14-.714h-.056q-.448.392-.938.644-.49.238-1.078.238zm.7-1.596q.35 0 .602-.154t.532-.434v-1.218q-1.092.154-1.512.448t-.42.7q0 .336.21.504.224.154.588.154zm.63-6.58-1.008-1.008 2.156-2.548 1.386 1.358-2.534 2.198z"/>
		<path d="m97.777 33v-1.666h1.932v-5.138h-1.666v-1.274q.728-.14 1.232-.336t0.98-.476h1.512v7.224h1.666v1.666h-5.656z"/>
	</g>
</svg>
